# xmcd CD database file
#
# Track frame offsets:
#	150
#	12562
#	22645
#	34897
#	43970
#	54932
#	66335
#	76542
#	87365
#	99652
#	110622
#	121810
#	132472
#	142085
#	151292
#	161562
#	171745
#	182165
#	193250
#	203687
#
# Disc length: 2878 seconds
#
# Revision: 1
# Processed by: cddbd v1.5.1PL0 Copyright (c) Steve Scherf et al.
# Submitted via: CDex 1.51
#
DISCID=190b3c14
DTITLE=Various Artist - IMMOTAL HIT POPS OLDIES 〜ORIGINAL TUNE〜 und-6
DYEAR=1900
DGENRE=
TTITLE0=My Girl
TTITLE1=Johnny Angel
TTITLE2=The Dog Of The Bay
TTITLE3=One Boy
TTITLE4=Young World
TTITLE5=Rhythm Of The Rain
TTITLE6=Louisiana Mama
TTITLE7=One Way Ticket
TTITLE8=Mr. Lonely
TTITLE9=Navy Blue
TTITLE10=Hey Paula
TTITLE11=The Loco-Motion
TTITLE12=Myhome Town
TTITLE13=Good Timin
TTITLE14=2400 Baci
TTITLE15=It's My Part
TTITLE16=The Diary
TTITLE17=Pocket Transistor
TTITLE18=Runaway
TTITLE19=April Love
EXTD=
EXTT0=
EXTT1=
EXTT2=
EXTT3=
EXTT4=
EXTT5=
EXTT6=
EXTT7=
EXTT8=
EXTT9=
EXTT10=
EXTT11=
EXTT12=
EXTT13=
EXTT14=
EXTT15=
EXTT16=
EXTT17=
EXTT18=
EXTT19=
PLAYORDER=
